<svg xmlns="http://www.w3.org/2000/svg" xmlns:xlink="http://www.w3.org/1999/xlink" width="257" height="257" viewBox="0 0 257 257">
  <defs>
    <circle id="logo-a" cx="128.5" cy="128.5" r="125"/>
  </defs>
  <g fill="none" fill-rule="evenodd">
    <circle cx="128" cy="128" r="125" fill="#FFF" transform="translate(.5 .5)"/>
    <mask id="logo-b" fill="#fff">
      <use xlink:href="#logo-a"/>
    </mask>
    <g fill="#1F8DED" fill-rule="nonzero" mask="url(#logo-b)">
      <path d="M131.733531,83.569125 C131.70347,86.346027 129.44383,88.5813379 126.666766,88.5813379 C123.889701,88.5813379 121.630061,86.346027 121.6,83.569125 L121.6,38 C121.630061,35.223098 123.889701,32.9877871 126.666766,32.9877871 C129.44383,32.9877871 131.70347,35.223098 131.733531,38 L131.733531,83.569125 L131.733531,83.569125 Z M129.965344,115.283094 C129.182187,115.953438 110.413156,131.70325 76,131.70325 C41.5874375,131.70325 22.819,115.952844 22.0358437,115.2825 C19.9116615,113.461032 19.6657946,110.262635 21.486625,108.137906 C23.3033391,106.016794 26.4942135,105.766581 28.6193437,107.578594 C28.9168125,107.827969 45.6771875,121.569125 76.0005937,121.569125 C106.704594,121.569125 123.2055,107.728813 123.368781,107.589281 C125.489062,105.76825 128.693531,106.012875 130.513375,108.1385 C132.334834,110.262803 132.08948,113.461441 129.965344,115.283094 L129.965344,115.283094 Z M20.2664688,38 C20.2965297,35.223098 22.5561696,32.9877871 25.3332344,32.9877871 C28.1102991,32.9877871 30.369939,35.223098 30.4,38 L30.4,83.569125 C30.369939,86.346027 28.1102991,88.5813379 25.3332344,88.5813379 C22.5561696,88.5813379 20.2965297,86.346027 20.2664688,83.569125 L20.2664688,38 L20.2664688,38 Z M45.6005938,27.8664688 C45.6429703,25.0985773 47.8988467,22.8769742 50.6670625,22.8769742 C53.4352783,22.8769742 55.6911547,25.0985773 55.7335313,27.8664688 L55.7335313,95.5545625 C55.6911547,98.3224539 53.4352783,100.544057 50.6670625,100.544057 C47.8988467,100.544057 45.6429703,98.3224539 45.6005938,95.5545625 L45.6005938,27.8670625 L45.6005938,27.8664688 Z M70.9335313,25.3026563 C70.9333737,23.9588969 71.4671103,22.6701292 72.4172917,21.7199479 C73.367473,20.7697666 74.6562407,20.23603 76,20.2361875 C77.3438622,20.2358725 78.6327824,20.7695395 79.5830922,21.7197379 C80.533402,22.6699363 81.06722,23.958794 81.0670625,25.3026563 L81.0670625,98.769125 C81.0370015,101.546027 78.7773616,103.781338 76.0002969,103.781338 C73.2232321,103.781338 70.9635922,101.546027 70.9335313,98.769125 L70.9335313,25.3026563 L70.9335313,25.3026563 Z M96.2670625,27.8664687 C96.3094391,25.0985773 98.5653154,22.8769742 101.333531,22.8769742 C104.101747,22.8769742 106.357623,25.0985773 106.4,27.8664687 L106.4,95.5545625 C106.357623,98.3224539 104.101747,100.544057 101.333531,100.544057 C98.5653154,100.544057 96.3094391,98.3224539 96.2670625,95.5545625 L96.2670625,27.8670625 L96.2670625,27.8664687 Z M133,0 L19,0 C8.50665625,0 0,8.50665625 0,19 L0,133 C0,143.49275 8.50665625,152 19,152 L133,152 C143.493344,152 152,143.49275 152,133 L152,19 C152,8.50665625 143.493344,0 133,0 Z" transform="translate(53 53)"/>
    </g>
  </g>
</svg>
