<?xml version="1.0" encoding="UTF-8"?>
<svg width="640px" height="360px" viewBox="0 0 640 360" version="1.1" xmlns="http://www.w3.org/2000/svg" xmlns:xlink="http://www.w3.org/1999/xlink" style="background: #FFFFFF;">
    <!-- Generator: Sketch 41.1 (35376) - http://www.bohemiancoding.com/sketch -->
    <title>intercom</title>
    <desc>Created with Sketch.</desc>
    <defs>
        <radialGradient cx="-7.10561993%" cy="146.843561%" fx="-7.10561993%" fy="146.843561%" r="118.171555%" id="radialGradient-1">
            <stop stop-color="#4BC2B8" offset="0%"></stop>
            <stop stop-color="#25A4D5" offset="100%"></stop>
        </radialGradient>
    </defs>
    <g id="Ships" stroke="none" stroke-width="1" fill="none" fill-rule="evenodd">
        <g id="intercom">
            <g id="ship-intercom">
                <rect id="B" fill="#F5F5F5" x="0" y="0" width="640" height="360"></rect>
                <path d="M255.073735,195.145643 L255.073735,164.854357 C255.073735,162.990278 256.588299,161.475713 258.452378,161.475713 C260.316457,161.475713 261.831022,162.990278 261.831022,164.854357 L261.831022,195.145643 C261.831022,197.009722 260.316457,198.524287 258.452378,198.524287 C256.704804,198.524287 255.073735,197.009722 255.073735,195.145643 Z M293.753377,196.427197 L279.073754,173.009703 L279.073754,195.145643 C279.073754,197.009722 277.559189,198.524287 275.69511,198.524287 C273.831031,198.524287 272.316467,197.009722 272.316467,195.145643 L272.316467,165.786396 C272.316467,163.339793 274.297051,161.242704 276.86016,161.242704 L277.09317,161.242704 C278.607734,161.242704 280.122298,162.058238 280.937833,163.339793 L295.500951,186.407772 L295.500951,164.621347 C295.500951,162.757268 297.015516,161.242704 298.879595,161.242704 C300.743674,161.242704 302.258238,162.757268 302.258238,164.621347 L302.258238,193.980594 C302.258238,196.427197 300.277654,198.524287 297.714545,198.524287 C296.083476,198.524287 294.568912,197.825257 293.753377,196.427197 Z M325.792237,167.766981 L325.792237,195.495158 C325.792237,197.242732 324.394178,198.640791 322.646604,198.640791 L322.180584,198.640791 C320.43301,198.640791 319.034951,197.242732 319.034951,195.495158 L319.034951,167.766981 L311.229119,167.766981 C309.481545,167.766981 308.083486,166.368921 308.083486,164.621347 C308.083486,162.873773 309.481545,161.475713 311.229119,161.475713 L333.714574,161.475713 C335.462148,161.475713 336.860207,162.873773 336.860207,164.621347 C336.860207,166.368921 335.462148,167.766981 333.714574,167.766981 L325.792237,167.766981 Z M342.219435,195.495158 L342.219435,164.388337 C342.219435,162.757268 343.617494,161.359209 345.248564,161.359209 L365.636929,161.359209 C367.267998,161.359209 368.666058,162.757268 368.666058,164.388337 C368.666058,166.019406 367.267998,167.417466 365.636929,167.417466 L348.976722,167.417466 L348.976722,176.038832 L363.30683,176.038832 C364.9379,176.038832 366.335959,177.436891 366.335959,179.06796 C366.335959,180.69903 364.9379,182.097089 363.30683,182.097089 L348.976722,182.097089 L348.976722,192.233019 L365.636929,192.233019 C367.267998,192.233019 368.666058,193.631079 368.666058,195.262148 C368.666058,196.893217 367.267998,198.291277 365.636929,198.291277 L345.248564,198.291277 C343.617494,198.524287 342.219435,197.242732 342.219435,195.495158 L342.219435,195.495158 Z M397.20977,196.543702 L391.850542,184.543693 L383.578691,184.543693 L383.578691,195.262148 C383.578691,197.126227 382.064127,198.640791 380.200048,198.640791 L380.083543,198.640791 C378.219463,198.640791 376.704899,197.126227 376.704899,195.262148 L376.704899,164.854357 C376.704899,162.990278 378.219463,161.475713 380.083543,161.475713 L392.433067,161.475713 C401.287443,161.475713 405.365116,167.067951 405.365116,173.009703 C405.365116,178.019416 402.685502,181.864079 398.607829,183.378643 L403.268027,193.864089 C404.200067,196.077683 402.685502,198.524287 400.238898,198.524287 C398.957344,198.524287 397.67579,197.825257 397.20977,196.543702 L397.20977,196.543702 Z M392.549572,167.300961 L383.695196,167.300961 L383.695196,178.368931 L392.666077,178.368931 C396.51074,178.368931 398.724334,176.388347 398.724334,172.893198 C398.607829,169.980575 396.394235,167.300961 392.549572,167.300961 L392.549572,167.300961 Z M437.520481,194.796128 C434.724363,197.592247 430.879699,199.223316 426.918531,199.223316 C422.957363,199.223316 419.229205,197.941762 416.433086,195.029138 C412.355413,190.951465 411.772888,186.058257 411.772888,180 C411.772888,173.941743 412.355413,168.93203 416.433086,164.970862 C419.229205,162.174743 422.957363,160.776684 426.918531,160.776684 C430.879699,160.776684 434.724363,162.291248 437.520481,165.087367 C438.452521,166.135911 439.268056,167.184456 439.85058,168.46601 C440.899125,170.679604 439.268056,173.126208 436.821452,173.126208 C435.423392,173.126208 434.258343,172.310674 433.675818,171.029119 C433.442808,170.330089 432.976788,169.747565 432.510769,169.16504 C431.345719,167.650476 429.24863,166.834941 426.918531,166.834941 C424.821442,166.834941 422.724353,167.766981 421.209789,169.281545 C418.64668,171.961159 418.64668,176.504852 418.64668,180 C418.64668,183.378643 418.64668,188.038841 421.209789,190.718455 C422.724353,192.233019 424.821442,193.165059 426.918531,193.165059 C429.24863,193.165059 431.345719,192.349524 432.510769,190.83496 C432.976788,190.252435 433.442808,189.553406 433.675818,188.854376 C434.141838,187.572822 435.423392,186.757287 436.821452,186.757287 C439.268056,186.757287 440.899125,189.203891 439.85058,191.417485 C439.268056,192.699039 438.452521,193.864089 437.520481,194.796128 Z M473.75352,195.029138 C470.957401,197.825257 466.996233,199.223316 463.035065,199.223316 C459.073896,199.223316 455.229233,197.825257 452.31661,195.029138 C448.238936,190.951465 447.656412,186.058257 447.656412,180 C447.656412,173.941743 448.355441,168.93203 452.31661,164.970862 C455.112728,162.174743 459.073896,160.776684 463.035065,160.776684 C466.996233,160.776684 470.840896,162.174743 473.75352,164.970862 C477.831193,169.048535 478.413718,173.941743 478.413718,180 C478.530223,186.058257 477.831193,191.06797 473.75352,195.029138 Z M468.976817,169.39805 C467.462253,167.883486 465.248659,166.951446 463.15157,166.951446 C461.054481,166.951446 458.724382,167.883486 457.326322,169.39805 C454.763213,172.077664 454.646709,176.621357 454.646709,180.116505 C454.646709,183.495148 454.763213,188.038841 457.326322,190.718455 C458.840887,192.233019 461.054481,193.165059 463.15157,193.165059 C465.248659,193.165059 467.578758,192.233019 468.976817,190.718455 C471.539926,188.038841 471.656431,183.495148 471.656431,180.116505 C471.656431,176.621357 471.539926,171.961159 468.976817,169.39805 L468.976817,169.39805 Z M517.675885,195.262148 L517.675885,172.077664 L508.938014,195.728168 C508.471994,197.126227 507.073935,198.058267 505.55937,198.058267 C504.044806,198.058267 502.763252,197.126227 502.180727,195.728168 L493.442856,171.728149 L493.442856,195.262148 C493.442856,197.126227 491.928291,198.524287 490.180717,198.524287 C488.316638,198.524287 486.918579,197.009722 486.918579,195.262148 L486.918579,166.485426 C486.918579,163.689307 489.248678,161.359209 492.044796,161.359209 L492.510816,161.359209 C494.607905,161.359209 496.588489,162.640763 497.287519,164.737852 L505.79238,187.805831 L514.413746,164.737852 C515.112776,162.757268 517.09336,161.359209 519.190449,161.359209 C521.986568,161.359209 524.316667,163.689307 524.316667,166.485426 L524.316667,195.262148 C524.316667,197.126227 522.802102,198.524287 521.054528,198.524287 C519.073944,198.524287 517.675885,197.126227 517.675885,195.262148 L517.675885,195.262148 Z M207.889231,127.572774 L129.248392,127.572774 C121.908581,127.572774 116.083333,133.398021 116.083333,140.621328 L116.083333,219.262167 C116.083333,226.601979 121.908581,232.427226 129.248392,232.427226 L207.889231,232.427226 C215.112538,232.427226 220.937785,226.601979 220.937785,219.378672 L220.937785,140.737833 C220.937785,133.398021 215.112538,127.572774 207.889231,127.572774 Z M182.491153,146.79609 C182.491153,144.815506 184.005717,143.300942 185.986301,143.300942 C187.966885,143.300942 189.48145,144.815506 189.48145,146.79609 L189.48145,193.514574 C189.48145,195.495158 187.966885,197.009722 185.986301,197.009722 C184.005717,197.009722 182.491153,195.495158 182.491153,193.514574 L182.491153,146.79609 Z M165.015411,145.048516 C165.015411,143.067932 166.529975,141.553368 168.510559,141.553368 C170.491143,141.553368 172.005708,143.067932 172.005708,145.048516 L172.005708,195.728168 C172.005708,197.708752 170.491143,199.223316 168.510559,199.223316 C166.529975,199.223316 165.015411,197.708752 165.015411,195.728168 L165.015411,145.048516 Z M147.539669,146.79609 C147.539669,144.815506 149.054233,143.300942 151.034817,143.300942 C153.015401,143.300942 154.529966,144.815506 154.529966,146.79609 L154.529966,193.514574 C154.529966,195.495158 153.015401,197.009722 151.034817,197.009722 C149.054233,197.009722 147.539669,195.495158 147.539669,193.514574 L147.539669,146.79609 Z M130.063927,153.786387 C130.063927,151.805803 131.578491,150.291239 133.559075,150.291239 C135.539659,150.291239 137.054224,151.805803 137.054224,153.786387 L137.054224,185.242723 C137.054224,187.223307 135.539659,188.737871 133.559075,188.737871 C131.578491,188.737871 130.063927,187.223307 130.063927,185.242723 L130.063927,153.786387 Z M205.792142,207.145653 C205.209618,207.611672 192.277568,218.446632 168.510559,218.446632 C144.74355,218.446632 131.811501,207.611672 131.228976,207.145653 C129.714412,205.864098 129.597907,203.650504 130.879462,202.252445 C132.161016,200.737881 134.37461,200.621376 135.772669,201.90293 C136.005679,201.90293 147.539669,211.456336 168.510559,211.456336 C189.71446,211.456336 201.131944,201.90293 201.131944,201.786425 C202.646509,200.504871 204.860103,200.737881 206.025152,202.13594 C207.423212,203.650504 207.190202,205.864098 205.792142,207.145653 Z M206.957192,185.242723 C206.957192,187.223307 205.442627,188.737871 203.462043,188.737871 C201.481459,188.737871 199.966895,187.223307 199.966895,185.242723 L199.966895,153.786387 C199.966895,151.805803 201.481459,150.291239 203.462043,150.291239 C205.442627,150.291239 206.957192,151.805803 206.957192,153.786387 L206.957192,185.242723 Z" id="Shape" fill="#1F8DED"></path>
            </g>
        </g>
    </g>
</svg>